<?xml version="1.0" encoding="UTF-8" standalone="no"?>
<!-- Created with Inkscape (http://www.inkscape.org/) -->

<svg
   version="1.1"
   id="svg2"
   width="666.66669"
   height="496.35468"
   viewBox="0 0 666.66669 496.35468"
   sodipodi:docname="Rhythm Heaven Advance Logo (Sharp Gradient).ai"
   xmlns:inkscape="http://www.inkscape.org/namespaces/inkscape"
   xmlns:sodipodi="http://sodipodi.sourceforge.net/DTD/sodipodi-0.dtd"
   xmlns="http://www.w3.org/2000/svg"
   xmlns:svg="http://www.w3.org/2000/svg">
  <defs
     id="defs6">
    <clipPath
       clipPathUnits="userSpaceOnUse"
       id="clipPath16">
      <path
         d="M 0,372.266 H 500 V 0 H 0 Z"
         id="path14" />
    </clipPath>
    <clipPath
       clipPathUnits="userSpaceOnUse"
       id="clipPath100">
      <path
         d="M 447.483,113.206 V 70.779 l 32.369,7.471 v 7.758 l -23.89,-5.514 v 9.941 l 19.622,4.528 v 7.758 l -19.622,-4.528 v 9.212 l 23.89,5.514 v 7.757 z m -11.529,-2.661 -17.571,-4.055 c -1.183,-0.273 -2.281,-0.78 -3.298,-1.519 v 0 c -1.017,-0.74 -1.903,-1.621 -2.66,-2.644 v 0 c -0.758,-1.024 -1.358,-2.143 -1.802,-3.356 v 0 c -0.443,-1.214 -0.665,-2.426 -0.665,-3.638 v 0 -24.002 c 0,-1.293 0.231,-2.441 0.693,-3.446 v 0 c 0.462,-1.005 1.081,-1.832 1.857,-2.48 v 0 c 0.776,-0.65 1.671,-1.1 2.688,-1.35 v 0 c 1.016,-0.25 2.079,-0.248 3.187,0.008 v 0 l 17.571,4.055 c 1.108,0.256 2.17,0.744 3.187,1.463 v 0 c 1.016,0.72 1.92,1.585 2.716,2.597 v 0 c 0.794,1.011 1.422,2.125 1.884,3.344 v 0 c 0.462,1.217 0.693,2.473 0.693,3.766 v 0 3.274 l -8.48,-1.958 v -2.121 c 0,-0.727 -0.232,-1.398 -0.693,-2.009 v 0 c -0.463,-0.612 -1.025,-0.995 -1.691,-1.148 v 0 l -12.804,-2.954 c -0.665,-0.154 -1.228,-0.022 -1.69,0.398 v 0 c -0.463,0.417 -0.693,0.99 -0.693,1.718 v 0 21.577 c 0,0.727 0.23,1.407 0.693,2.039 v 0 c 0.462,0.631 1.025,1.025 1.69,1.178 v 0 l 12.804,2.955 c 0.666,0.153 1.228,0.031 1.691,-0.368 v 0 c 0.461,-0.398 0.693,-0.961 0.693,-1.688 v 0 -2.121 l 8.48,1.957 v 3.272 c 0,1.252 -0.231,2.392 -0.693,3.417 v 0 c -0.462,1.024 -1.09,1.859 -1.884,2.505 v 0 c -0.796,0.644 -1.7,1.092 -2.716,1.342 v 0 c -0.504,0.124 -1.017,0.186 -1.542,0.186 v 0 c -0.537,0 -1.085,-0.065 -1.645,-0.194 m -39.132,-9.031 V 70.906 L 379.307,97.472 369.109,95.118 V 52.691 l 8.425,1.944 v 30.608 l 17.515,-26.565 10.198,2.354 v 42.427 z m -54.207,-12.51 -16.406,-46.214 8.424,1.944 3.381,9.933 17.571,4.055 3.436,-8.359 8.425,1.944 -16.406,38.641 z m 4.212,-8.847 0.056,0.012 5.819,-14.355 -11.75,-2.711 z m -27.769,3.41 -11.806,-34.121 -11.805,28.671 -8.813,-2.034 16.406,-38.64 8.425,1.945 16.406,46.213 z M 276.767,73.806 249.664,67.551 V 25.124 l 27.103,6.255 c 1.183,0.273 2.292,0.781 3.326,1.526 v 0 c 1.034,0.743 1.93,1.627 2.688,2.65 v 0 c 0.757,1.024 1.358,2.142 1.802,3.356 v 0 c 0.443,1.213 0.665,2.426 0.665,3.638 v 0 24.002 c 0,1.293 -0.232,2.441 -0.693,3.446 v 0 c -0.463,1.004 -1.081,1.831 -1.857,2.481 v 0 c -0.776,0.649 -1.682,1.097 -2.716,1.343 v 0 c -0.507,0.121 -1.023,0.181 -1.548,0.181 v 0 c -0.546,0 -1.102,-0.065 -1.667,-0.196 m -18.678,-12.069 16.295,3.761 c 0.665,0.153 1.228,0.02 1.69,-0.397 v 0 c 0.462,-0.42 0.693,-0.992 0.693,-1.719 v 0 -21.578 c 0,-0.727 -0.231,-1.408 -0.693,-2.038 v 0 c -0.462,-0.633 -1.025,-1.026 -1.69,-1.179 v 0 l -16.295,-3.761 z m -34.92,-0.3 -16.406,-46.214 8.425,1.944 3.382,9.933 17.569,4.055 3.437,-8.359 8.424,1.944 -16.406,38.641 z m 4.213,-8.847 0.055,0.012 5.82,-14.354 -11.75,-2.712 z"
         id="path98" />
    </clipPath>
  </defs>
  <sodipodi:namedview
     id="namedview4"
     pagecolor="#ffffff"
     bordercolor="#000000"
     borderopacity="0.25"
     inkscape:showpageshadow="2"
     inkscape:pageopacity="0.0"
     inkscape:pagecheckerboard="0"
     inkscape:deskcolor="#d1d1d1" />
  <g
     id="g8"
     inkscape:groupmode="layer"
     inkscape:label="Rhythm Heaven Advance Logo (Sharp Gradient)"
     transform="matrix(1.3333333,0,0,-1.3333333,0,496.35467)">
    <g
       id="g10">
      <g
         id="g12"
         clip-path="url(#clipPath16)">
        <g
           id="g18"
           transform="translate(481.8828,224.0315)">
          <path
             d="m 0,0 c 4.894,12.547 7.441,25.99 7.441,39.551 0,59.928 -48.754,108.683 -108.682,108.683 -34.925,0 -67.126,-16.686 -87.342,-43.975 -14.012,7.001 -29.565,10.725 -45.455,10.725 -20.991,0 -41.147,-6.349 -58.288,-18.361 -8.889,-6.228 -16.637,-13.734 -23.038,-22.254 -17.194,10.789 -37.268,16.702 -57.836,16.702 -59.928,0 -108.683,-48.755 -108.683,-108.683 0,-24.092 7.724,-46.916 22.336,-66.007 10.206,-13.335 23.493,-24.17 38.472,-31.557 -0.205,-2.623 -0.307,-5.258 -0.307,-7.897 0,-55.669 45.29,-100.959 100.958,-100.959 20.885,0 40.931,6.328 57.972,18.298 10.137,7.121 18.774,15.914 25.603,25.984 11.397,-4.307 23.536,-6.534 35.935,-6.534 31.208,0 60.532,14.582 79.602,38.459 12.553,-5.597 26.176,-8.498 40.266,-8.498 54.679,0 99.163,44.484 99.163,99.162 C 18.117,-36.457 11.765,-16.626 0,0"
             style="fill:#00b3f0;fill-opacity:1;fill-rule:nonzero;stroke:none"
             id="path20" />
        </g>
        <g
           id="g22"
           transform="translate(468.8918,222.4202)">
          <path
             d="m 0,0 c 5.98,12.826 9.115,26.918 9.115,41.162 0,53.688 -43.678,97.366 -97.365,97.366 -34.693,0 -66.385,-18.377 -83.768,-47.706 -14.529,9.386 -31.55,14.456 -49.029,14.456 -18.655,0 -36.565,-5.64 -51.793,-16.312 -10.96,-7.68 -19.969,-17.542 -26.538,-28.964 -17.159,13.703 -38.677,21.363 -60.831,21.363 -53.687,0 -97.366,-43.678 -97.366,-97.365 0,-40.116 24.959,-76.144 61.728,-90.631 -0.816,-4.887 -1.227,-9.848 -1.227,-14.83 0,-49.429 40.213,-89.642 89.641,-89.642 18.544,0 36.341,5.616 51.467,16.241 11.591,8.143 20.974,18.746 27.565,31.059 12.5,-6.276 26.297,-9.552 40.478,-9.552 30.846,0 59.619,16.027 76.091,41.624 13.257,-7.66 28.192,-11.663 43.777,-11.663 48.438,0 87.845,39.407 87.845,87.845 C 19.79,-35.123 12.811,-15.654 0,0"
             style="fill:#ffffff;fill-opacity:1;fill-rule:nonzero;stroke:none"
             id="path24" />
        </g>
        <g
           id="g26"
           transform="translate(457.0275,220.9138)">
          <path
             d="m 0,0 c 7.066,12.623 11.1,27.174 11.1,42.669 0,48.317 -39.169,87.485 -87.486,87.485 -35.965,0 -66.856,-21.705 -80.302,-52.728 -14.093,12.138 -32.436,19.478 -52.495,19.478 -34.318,0 -63.615,-21.483 -75.187,-51.733 -15.969,17.115 -38.72,27.82 -63.975,27.82 -48.316,0 -87.485,-39.168 -87.485,-87.485 0,-39.96 26.791,-73.661 63.391,-84.124 -1.881,-6.792 -2.891,-13.947 -2.891,-21.337 0,-44.051 35.711,-79.762 79.761,-79.762 34.079,0 63.16,21.375 74.583,51.447 12.831,-8.649 28.289,-13.699 44.928,-13.699 32.056,0 59.733,18.744 72.674,45.869 13.101,-9.979 29.454,-15.908 47.194,-15.908 43.059,0 77.965,34.906 77.965,77.965 C 21.775,-33.06 13.483,-14.015 0,0"
             style="fill:#130c0e;fill-opacity:1;fill-rule:nonzero;stroke:none"
             id="path28" />
        </g>
        <g
           id="g30"
           transform="translate(358.5608,123.8206)">
          <path
             d="m 0,0 -133.203,-30.753 10.548,-45.687 133.203,30.753 z"
             style="fill:#130c0e;fill-opacity:1;fill-rule:nonzero;stroke:none"
             id="path32" />
        </g>
        <g
           id="g34"
           transform="translate(457.0212,137.6721)">
          <path
             d="m 0,0 v 6.729 l -1.692,-7.12 -1.832,-0.423 -1.651,6.348 v -6.729 l -1.732,-0.4 v 8.056 l 2.706,0.624 1.631,-6.012 0.02,0.004 1.591,6.757 2.671,0.616 V 0.395 Z M -12.504,-2.887 V 3.74 L -15.29,3.097 v 1.424 l 7.369,1.701 V 4.798 l -2.686,-0.62 v -6.627 z"
             style="fill:#f15a22;fill-opacity:1;fill-rule:nonzero;stroke:none"
             id="path36" />
        </g>
        <g
           id="g38"
           transform="translate(419.8548,223.2986)">
          <path
             d="m 0,0 c 0,0 -0.125,-32.699 -0.532,-38.45 -0.407,-5.752 -1.41,-8.097 -2.975,-8.378 -0.752,-0.094 -1.502,0.088 -2.13,0.5 -4.099,2.689 -11.758,18.003 -18.616,31.32 l -10.005,-2.31 v -82.747 l 12.115,2.797 0.161,21.023 c 0,4.377 0.469,7.284 1.471,8.66 0.345,0.469 0.907,0.788 1.441,0.875 3.527,0.574 10.459,-8.378 18.945,-22.633 l 16.189,3.738 V 3.709 Z"
             style="fill:#f15a22;fill-opacity:1;fill-rule:nonzero;stroke:none"
             id="path40" />
        </g>
        <g
           id="g42"
           transform="translate(358.1035,140.4086)">
          <path
             d="m 0,0 c -0.371,-0.002 -3.119,0.092 -3.413,2.188 -0.17,1.214 0.438,2.314 1.879,3.251 1.252,0.751 3.162,1.532 5.73,2.282 l 12.119,3.189 v 10.535 c 0,0 -13.795,-3.32 -18.037,-2.689 -1.289,0.192 -2.13,0.876 -2.318,2.064 -0.156,1.219 0.439,2.313 1.879,3.251 3.88,2.527 21.294,6.283 21.294,6.283 v 24.308 l -35.855,-8.278 v -64.797 l 36.606,8.451 V 3.501 C 10.114,1.282 3.51,0.019 0,0"
             style="fill:#f15a22;fill-opacity:1;fill-rule:nonzero;stroke:none"
             id="path44" />
        </g>
        <g
           id="g46"
           transform="translate(318.4656,188.7533)">
          <path
             d="m 0,0 c 0,0 -3.884,-25.59 -7.333,-37.416 -0.985,-3.38 -3.367,-8.55 -6.607,-1.157 -1.161,2.648 -4.605,15.019 -7.133,30.967 l -11.186,-2.582 c 0.979,-10.966 6.349,-40.584 13.503,-57.839 l 21.694,5.008 c 7.985,21.132 12.776,43.452 14.404,67.023 z"
             style="fill:#f15a22;fill-opacity:1;fill-rule:nonzero;stroke:none"
             id="path48" />
        </g>
        <g
           id="g50"
           transform="translate(270.3988,116.8912)">
          <path
             d="m 0,0 c -1.728,-0.376 -5.659,-1.372 -7.668,-1.748 -1.922,-0.376 -3.045,0.708 -2.807,3.452 0.216,2.567 1.343,8.009 1.771,9.846 0.945,4.064 2.804,5.758 4.989,6.063 2.801,0.391 5.248,-2.058 6.588,-8.696 C 3.002,8.276 3.329,6.944 3.542,5.133 3.801,2.936 2.721,0.686 0,0 m 9.561,36.683 c -5.429,10.003 -11.742,7.93 -14.977,6.859 -4.239,-1.402 -8.001,-3.579 -11.938,-19.194 -4.138,-16.413 -8.642,-50.892 -8.642,-50.892 l 11.359,2.623 1.166,6.537 c 0.564,3.157 2.574,5.163 5.637,6.064 0,0 8.801,2.284 11.805,2.626 1.27,0.144 2.761,-0.857 3.194,-2.845 l 1.535,-7.033 15.469,3.571 c 0,0 -7.695,38.949 -14.608,51.684"
             style="fill:#f15a22;fill-opacity:1;fill-rule:nonzero;stroke:none"
             id="path52" />
        </g>
        <g
           id="g54"
           transform="translate(219.3202,103.852)">
          <path
             d="m 0,0 c -0.371,-0.002 -3.119,0.092 -3.413,2.188 -0.17,1.214 0.438,2.314 1.879,3.251 1.252,0.751 3.162,1.532 5.73,2.282 l 12.119,3.189 v 10.535 c 0,0 -13.795,-3.32 -18.037,-2.689 -1.289,0.192 -2.13,0.876 -2.318,2.064 -0.156,1.219 0.439,2.313 1.879,3.251 3.88,2.527 21.294,6.283 21.294,6.283 v 26.228 l -35.855,-8.278 v -64.81 l 36.606,8.452 V 3.501 C 10.114,1.282 3.51,0.019 0,0"
             style="fill:#f15a22;fill-opacity:1;fill-rule:nonzero;stroke:none"
             id="path56" />
        </g>
        <g
           id="g58"
           transform="translate(174.6978,157.9328)">
          <path
             d="m 0,0 c 0.344,-12.911 0.206,-22.575 -1.566,-28.916 -1.076,-3.852 -3.444,-6.784 -6.607,-9.003 -3.221,-2.261 -6.451,-3.251 -9.613,-3.314 -3.857,-0.076 -6.644,1.425 -7.015,5.471 -0.563,6.158 -0.814,14.767 -0.626,25.551 l -13.997,-3.231 v -95.345 l 19.226,4.439 c -0.344,12.161 0.071,21.181 1.566,26.759 1.019,3.802 3.809,7.019 6.607,8.91 3.271,2.208 6.445,3.356 9.614,3.407 3.851,0.062 6.651,-1.723 7.014,-5.564 0.532,-5.627 0.783,-13.745 0.626,-24.093 l 14.311,3.304 V 4.511 Z"
             style="fill:#f15a22;fill-opacity:1;fill-rule:nonzero;stroke:none"
             id="path60" />
        </g>
        <g
           id="g62"
           transform="translate(418.4433,234.369)">
          <path
             d="m 0,0 v 83.019 l -11.349,-2.62 C -17.368,60.523 -20.775,50.805 -23.742,42.612 -28.8,28.672 -34.046,34.147 -36.491,38.035 -39.334,42.591 -43.2,51.454 -49.909,67.693 l -16.574,-3.826 v -76.818 l 13.743,3.172 c -0.104,12.436 0.114,19.683 0.783,22.964 0.606,2.947 2.382,3.365 4.18,0.439 1.484,-2.404 3.825,-7.608 8.485,-18.309 l 9.217,2.128 c 5.079,13.648 7.817,20.528 9.76,23.893 1.568,2.738 4.556,4.66 5.455,-0.397 0.69,-3.825 0.627,-11.523 0.606,-24.23 z"
             style="fill:#faa61a;fill-opacity:1;fill-rule:nonzero;stroke:none"
             id="path64" />
        </g>
        <g
           id="g66"
           transform="translate(328.542,279.2697)">
          <path
             d="m 0,0 v -23.921 c -0.793,-7.717 -14.451,-10.984 -15.419,-2.88 -0.328,3.609 -0.501,8.594 -0.501,19.236 l -11.476,-2.649 V -81.33 l 15.735,3.632 v 17.023 c 0.957,12.311 15.224,12.994 16.536,4.259 0.442,-2.754 0.401,-7.104 0.401,-16.085 l 11.475,2.649 V 3.867 Z"
             style="fill:#faa61a;fill-opacity:1;fill-rule:nonzero;stroke:none"
             id="path68" />
        </g>
        <g
           id="g70"
           transform="translate(250.2844,269.1418)">
          <path
             d="m 0,0 v -29.308 l 10.588,2.445 c 4.219,0.974 5.701,0.078 5.67,-8.399 v -37.664 l 12.545,2.896 v 34.854 c 0.087,14.962 1.842,18.059 9.283,19.777 l 6.644,1.534 v 24.192 z"
             style="fill:#faa61a;fill-opacity:1;fill-rule:nonzero;stroke:none"
             id="path72" />
        </g>
        <g
           id="g74"
           transform="translate(244.0899,256.6977)">
          <path
             d="m 0,0 -13.379,-3.089 c 0,0 -0.304,-13.482 -0.823,-23.53 -0.775,-14.253 -16.016,-18.687 -16.861,-4.187 -0.385,7.391 -0.508,21.908 -0.508,21.908 l -16.134,-3.724 v -6.857 c 0,-26.701 3.309,-36.119 19.197,-34.02 3.761,0.496 6.615,1.461 9.786,3.747 0.206,0.13 0.408,0.11 0.572,0 0.34,-0.245 0.704,-0.932 0.143,-2.675 -3.025,-9.389 -28.803,-11.838 -28.803,-11.838 l -0.007,-21.165 c 14.805,2.179 30.966,5.303 39.375,19.38 C -4.266,-60.813 0.001,-50.219 0,0"
             style="fill:#faa61a;fill-opacity:1;fill-rule:nonzero;stroke:none"
             id="path76" />
        </g>
        <g
           id="g78"
           transform="translate(173.025,245.3621)">
          <path
             d="m 0,0 v -22.734 c -0.753,-7.334 -13.734,-10.439 -14.654,-2.737 -0.312,3.43 -0.476,8.168 -0.476,18.282 l -10.906,-2.518 v -67.587 l 14.954,3.452 v 16.178 c 0.909,11.7 14.468,12.349 15.715,4.048 0.42,-2.617 0.381,-6.752 0.381,-15.287 l 10.906,2.517 V 3.675 Z"
             style="fill:#faa61a;fill-opacity:1;fill-rule:nonzero;stroke:none"
             id="path80" />
        </g>
        <g
           id="g82"
           transform="translate(99.5638,195.3257)">
          <path
             d="m 0,0 c -6.848,-1.746 -10.887,1.922 -10.887,11.127 0,7.342 0.139,14.923 13.581,14.923 9.571,0 13.563,-4.846 13.572,-10.313 C 16.275,10.637 10.442,2.662 0,0 m 40.186,30.328 c 0,16.907 -12.456,37.357 -64.577,24.812 v -91.951 l 13.573,3.133 v 16.43 c 0,8.021 5.219,4.799 6.372,4.075 1.948,-1.225 6.017,-4.551 15.683,-15.413 l 23.058,5.323 -17.968,18.397 c 0,0 23.859,9.608 23.859,35.194"
             style="fill:#faa61a;fill-opacity:1;fill-rule:nonzero;stroke:none"
             id="path84" />
        </g>
        <g
           id="g86"
           transform="translate(486.5646,107.5784)">
          <path
             d="m 0,0 v 21.537 l -268.49,-61.966 -21.735,-61.221 23.999,5.538 3.381,9.933 8.378,1.933 3.436,-8.359 104.25,24.06 3.381,9.933 8.378,1.933 3.436,-8.359 L 0,-34.669 v 21.537 l -4.268,-0.985 v 13.132 z"
             style="fill:#130c0e;fill-opacity:1;fill-rule:nonzero;stroke:none"
             id="path88" />
        </g>
        <g
           id="g90"
           transform="translate(479.8517,78.2497)">
          <path
             d="M 0,0 -32.369,-7.471 V 34.956 L 0,42.427 v -7.758 l -23.889,-5.514 v -9.212 l 19.621,4.528 V 16.713 L -23.889,12.185 V 2.245 L 0,7.758 Z m -61.468,-14.186 c -1.109,-0.256 -2.172,-0.259 -3.188,-0.009 -1.016,0.251 -1.912,0.7 -2.688,1.35 -0.776,0.648 -1.395,1.475 -1.857,2.48 -0.462,1.005 -0.692,2.153 -0.692,3.447 v 24.001 c 0,1.213 0.221,2.425 0.665,3.639 0.443,1.213 1.043,2.332 1.801,3.355 0.757,1.023 1.644,1.904 2.661,2.645 1.016,0.739 2.115,1.245 3.298,1.518 l 17.57,4.056 c 1.108,0.255 2.17,0.258 3.187,0.008 1.016,-0.251 1.921,-0.699 2.716,-1.343 0.794,-0.646 1.422,-1.481 1.884,-2.505 0.462,-1.025 0.693,-2.164 0.693,-3.416 v -3.273 l -8.48,-1.957 v 2.121 c 0,0.728 -0.231,1.29 -0.693,1.689 -0.462,0.398 -1.025,0.521 -1.69,0.367 l -12.804,-2.955 c -0.665,-0.153 -1.229,-0.546 -1.691,-1.178 -0.462,-0.632 -0.692,-1.311 -0.692,-2.038 V -3.762 c 0,-0.727 0.23,-1.301 0.692,-1.719 0.462,-0.419 1.026,-0.551 1.691,-0.397 l 12.804,2.955 c 0.665,0.153 1.228,0.535 1.69,1.147 0.462,0.612 0.693,1.282 0.693,2.009 v 2.121 l 8.48,1.957 V 1.039 c 0,-1.294 -0.231,-2.549 -0.693,-3.767 -0.462,-1.218 -1.09,-2.333 -1.884,-3.344 -0.795,-1.012 -1.7,-1.877 -2.716,-2.596 -1.017,-0.72 -2.079,-1.207 -3.187,-1.463 z m -13.137,39.395 v -42.427 l -10.198,-2.354 -17.515,26.566 v -30.608 l -8.425,-1.945 v 42.427 l 10.199,2.354 17.514,-26.566 v 30.608 z m -58.42,-23.302 0.056,0.013 5.82,-14.355 -11.751,-2.712 z m 20.619,-27.849 -16.406,38.64 -8.425,-1.944 -16.406,-46.214 8.424,1.945 3.382,9.932 17.57,4.055 3.436,-8.359 z m -39.575,33.293 -16.406,-46.213 -8.425,-1.945 -16.406,38.641 8.813,2.034 11.806,-28.672 11.805,34.121 z m -51.103,-43.796 c 0,-0.728 -0.232,-1.408 -0.693,-2.039 -0.463,-0.633 -1.026,-1.025 -1.691,-1.178 l -16.295,-3.761 v 26.911 l 16.295,3.76 c 0.665,0.154 1.228,0.021 1.691,-0.397 0.461,-0.419 0.693,-0.992 0.693,-1.719 z m 8.48,24.746 c 0,1.293 -0.231,2.441 -0.693,3.447 -0.462,1.004 -1.081,1.831 -1.857,2.48 -0.776,0.649 -1.681,1.097 -2.716,1.343 -1.034,0.246 -2.106,0.241 -3.214,-0.014 l -27.104,-6.256 v -42.427 l 27.104,6.256 c 1.182,0.273 2.29,0.78 3.325,1.525 1.034,0.743 1.931,1.627 2.689,2.651 0.756,1.023 1.357,2.141 1.801,3.355 0.443,1.213 0.665,2.426 0.665,3.639 z m -57.866,-13.961 0.056,0.013 5.82,-14.355 -11.751,-2.712 z m 20.619,-27.849 -16.406,38.64 -8.425,-1.944 -16.407,-46.214 8.425,1.945 3.381,9.932 17.571,4.055 3.436,-8.359 z"
             style="fill:#7058f8;fill-opacity:1;fill-rule:nonzero;stroke:none"
             id="path92" />
        </g>
      </g>
    </g>
    <g
       id="g94">
      <g
         id="g96"
         clip-path="url(#clipPath100)">
        <g
           id="g102"
           transform="translate(487.9595,150.8792)">
          <path
             d="m 0,0 -296.544,-68.463 11.63,-50.374 296.544,68.463 z"
             style="fill:#9482fa;fill-opacity:1;fill-rule:nonzero;stroke:none"
             id="path104" />
        </g>
        <g
           id="g106"
           transform="translate(487.9595,150.8792)">
          <path
             d="m 0,0 -296.544,-68.463 10.612,-47.525 296.543,68.463 z"
             style="fill:#cac1fd;fill-opacity:1;fill-rule:nonzero;stroke:none"
             id="path108" />
        </g>
        <g
           id="g110"
           transform="translate(487.9595,150.8792)">
          <path
             d="m 0,0 -296.544,-68.463 9.667,-45.107 296.544,68.463 z"
             style="fill:#f2effe;fill-opacity:1;fill-rule:nonzero;stroke:none"
             id="path112" />
        </g>
        <g
           id="g114"
           transform="translate(487.9595,150.8792)">
          <path
             d="m 0,0 -296.544,-68.463 9.313,-43.01 296.543,68.463 z"
             style="fill:#ffffff;fill-opacity:1;fill-rule:nonzero;stroke:none"
             id="path116" />
        </g>
      </g>
    </g>
  </g>
</svg>
